<?xml version="1.0" encoding="UTF-8"?> <svg xmlns="http://www.w3.org/2000/svg" width="32" height="32" fill="none"><path fill="#4F6BFE" fill-rule="evenodd" d="M21.08 6.249c-.402.51-.62 1.498-.547 2.467q.15 1.982 1.508 3.17l.685.599-.176.628c-.097.346-.214.652-.26.68-.264.16-1.498-.705-2.82-1.974-.826-.796-1.95-1.8-2.495-2.232-.924-.732-.992-.822-.992-1.313 0-.43.087-.603.471-.94.403-.354.443-.439.27-.581-.31-.258-1.868-.066-3.203.395-1.068.369-1.24.392-2.12.279-1.155-.148-3.072.05-4.043.419-2.12.806-3.774 2.623-4.532 4.981-.403 1.253-.428 3.614-.054 5.079.734 2.875 2.767 5.406 5.517 6.868 1.552.825 2.876 1.13 4.882 1.128 2.384-.002 3.757-.385 5.418-1.508q.76-.515.958-.402c.11.061.667.176 1.239.256 1.655.23 3.13-.128 3.13-.76 0-.24-.707-.668-1.573-.951-1.09-.357-1.105-.401-.387-1.194 1.837-2.03 3.035-4.908 3.22-7.736.039-.6.047-.61.68-.77 1.05-.267 1.852-.726 2.447-1.402.669-.76.892-1.255 1.098-2.442.135-.772.126-.92-.065-1.11-.202-.202-.256-.185-.666.211-.565.547-1.3.855-2.048.858-.592.003-1.636.388-1.808.667-.162.262-.291.167-.542-.4-.25-.567-.39-.69-1.45-1.26-.484-.262-.697-.499-.997-1.107-.393-.798-.515-.897-.745-.603M7.92 13.585c1.697.438 3.854 1.775 5.096 3.158.315.352 1.173 1.495 1.906 2.542 1.39 1.985 2.17 2.89 3.318 3.856l.684.574h-.833c-1.233.002-1.975-.283-3.305-1.268-1.686-1.25-2.573-1.764-3.077-1.787-.578-.026-.625.258-.196 1.194.367.803.34.956-.21 1.165-.458.174-1.719-.127-2.346-.56-1.494-1.028-2.75-2.44-3.504-3.937-.857-1.7-1.493-4.676-1.073-5.021.45-.369 1.921-.334 3.54.084m10.2.645c.592.281 1.508 1.296 2.022 2.24l.397.73-.31.25c-.93.753-2.541-.313-2.261-1.496.113-.475-.154-.825-.77-1.01-.645-.192-.823-.484-.459-.75.337-.247.81-.234 1.38.036m-.91 1.345c.187.227.08.485-.201.485-.246 0-.386-.235-.29-.485.097-.254.28-.253.49 0" clip-rule="evenodd"></path></svg> 